<?xml version="1.0" encoding="iso-8859-1"?>
<!-- Uploaded to: SVG Repo, www.svgrepo.com, Generator: SVG Repo Mixer Tools -->
<!DOCTYPE svg PUBLIC "-//W3C//DTD SVG 1.1//EN" "http://www.w3.org/Graphics/SVG/1.1/DTD/svg11.dtd">
<svg fill="#000000" height="800px" width="800px" version="1.1" id="Capa_1" xmlns="http://www.w3.org/2000/svg" xmlns:xlink="http://www.w3.org/1999/xlink" 
	 viewBox="0 0 459.292 459.292" xml:space="preserve">
<g>
	<circle cx="337.245" cy="56.593" r="35.888"/>
	<path d="M437.973,275.724c8.981-3.284,13.6-13.227,10.316-22.209c-0.284-0.777-28.559-78.133-41.009-114.364
		c-8.035-23.378-21.506-35.231-40.038-35.231h-59.996c-18.534,0-32.004,11.854-40.037,35.231
		c-3.592,10.453-8.502,24.329-13.676,38.801l-0.175-34.793c-0.115-22.777-18.738-41.307-41.516-41.307c-3.51,0-73.539,0-77.443,0
		l-62.957-35.99L43.162,9.661C38.805,1.006,28.261-2.478,19.605,1.876C10.951,6.231,7.465,16.777,11.82,25.432l30.657,60.923
		c1.55,3.079,3.972,5.634,6.965,7.344l68.566,39.196l0.008,305.344c0,11.626,9.425,21.052,21.052,21.052
		c11.627,0,21.052-9.425,21.052-21.052v-40.444c-5.224-5.327-8.453-12.617-8.453-20.65v-72.611c0-8.033,3.229-15.322,8.453-20.65
		v-13.913h9.089v7.594c3.2-1.426,6.695-2.305,10.37-2.503c0-2.119-0.031-3.245,0.154-5.091
		c1.465-14.691,13.609-27.592,31.199-27.592v-99.023c0-2.023,1.637-3.665,3.66-3.671c2.023-0.006,3.671,1.626,3.683,3.65
		c0-0.001,0-0.001,0,0c0.023,4.639,0.569,113.233,0.6,119.481h-8.638c-5.656,0-10.219,4.591-10.219,10.219l0,22.419h-18.832
		c-5.014,0-9.079,4.065-9.079,9.079v72.611c0,5.014,4.065,9.079,9.079,9.079h110.558c5.014,0,9.079-4.065,9.079-9.079v-72.611
		c0-5.014-4.065-9.079-9.079-9.079H272.91l0-22.419c0-5.544-4.513-10.219-10.219-10.219h-3.02
		c1.327-3.634,3.959-10.855,7.327-20.129c7.23-19.908,17.837-49.245,26.14-72.75c-0.897,7.333,1.064-3.529-14.517,76.915
		c8.823,5.389,14.726,15.109,14.726,26.182v2.027c15.532,0.837,27.912,13.735,27.912,29.472c0,7.067,0,65.867,0,72.611
		c0,16.276-13.241,29.517-29.517,29.517h-0.542v31.85c0,11.476,9.304,20.779,20.779,20.779c11.476,0,20.779-9.303,20.779-20.779
		V310.346c2.987,0,5.984,0,8.971,0v128.167c0,11.476,9.304,20.779,20.779,20.779c11.476,0,20.779-9.303,20.779-20.779V310.346
		c5.003,0,9.489,0,13.213,0c6.038,0,10.596-5.51,9.444-11.46c-26.605-137.362-23.664-121.339-24.595-128.948
		c13.868,39.26,34.172,94.811,34.413,95.47C419.05,274.395,428.999,279.008,437.973,275.724z M236.462,289.672
		c0.029,0,0.061,0,0.09,0c5.433-0.027,10.275-2.523,13.474-6.417h2.447v0v12.2h-32.019v-12.201h2.45
		C226.123,287.173,231.002,289.672,236.462,289.672z"/>
	<circle cx="164.901" cy="53.905" r="36.358"/>
	<path d="M169.209,404.114v34.126c0,11.626,9.425,21.052,21.052,21.052c11.627,0,21.052-9.425,21.052-21.052v-31.577h-30.128
		C176.922,406.663,172.872,405.747,169.209,404.114z"/>
</g>
</svg>